{
  "accessors": [
    {
      "bufferView": 2,
      "componentType": 5126,
      "count": 1010,
      "max": [
        26.355688095092773,
        5.416389465332031,
        14.952235221862793
      ],
      "min": [
        -20.016206741333008,
        -3.2877628803253174,
        -21.650344848632813
      ],
      "type": "VEC3"
    },
    {
      "bufferView": 2,
      "byteOffset": 12120,
      "componentType": 5126,
      "count": 1010,
      "max": [
        0.33809182047843933,
        0.9989848732948303,
        0.4362418055534363
      ],
      "min": [
        -0.3380919396877289,
        -0.9989848732948303,
        -0.43624138832092285
      ],
      "type": "VEC3"
    },
    {
      "bufferView": 1,
      "componentType": 5126,
      "count": 1010,
      "max": [
        0.875,
        1.0
      ],
      "min": [
        0.125,
        0.0
      ],
      "type": "VEC2"
    },
    {
      "bufferView": 0,
      "componentType": 5125,
      "count": 4512,
      "type": "SCALAR"
    },
    {
      "bufferView": 2,
      "byteOffset": 24240,
      "componentType": 5126,
      "count": 4013,
      "max": [
        22.20388412475586,
        4.689024448394775,
        5.500750541687012
      ],
      "min": [
        -6.000741481781006,
        0.9265609979629517,
        -21.801166534423828
      ],
      "type": "VEC3"
    },
    {
      "bufferView": 2,
      "byteOffset": 72396,
      "componentType": 5126,
      "count": 4013,
      "max": [
        1.0,
        1.0,
        1.0
      ],
      "min": [
        -1.0,
        -1.0,
        -1.0
      ],
      "type": "VEC3"
    },
    {
      "bufferView": 1,
      "byteOffset": 8080,
      "componentType": 5126,
      "count": 4013,
      "max": [
        0.875,
        1.0
      ],
      "min": [
        0.125,
        0.0
      ],
      "type": "VEC2"
    },
    {
      "bufferView": 0,
      "byteOffset": 18048,
      "componentType": 5125,
      "count": 9408,
      "type": "SCALAR"
    },
    {
      "bufferView": 2,
      "byteOffset": 120552,
      "componentType": 5126,
      "count": 5304,
      "max": [
        12.908514022827148,
        1.4374785423278809,
        13.677348136901855
      ],
      "min": [
        -16.174753189086914,
        -2.8158857822418213,
        -4.881396293640137
      ],
      "type": "VEC3"
    },
    {
      "bufferView": 2,
      "byteOffset": 184200,
      "componentType": 5126,
      "count": 5304,
      "max": [
        0.9845203161239624,
        0.9999908804893494,
        0.8637533783912659
      ],
      "min": [
        -0.987170934677124,
        -0.9999788999557495,
        -0.8637531995773315
      ],
      "type": "VEC3"
    },
    {
      "bufferView": 1,
      "byteOffset": 40184,
      "componentType": 5126,
      "count": 5304,
      "max": [
        1.0,
        1.0
      ],
      "min": [
        4.470348358154297e-08,
        0.01524457335472107
      ],
      "type": "VEC2"
    },
    {
      "bufferView": 0,
      "byteOffset": 55680,
      "componentType": 5125,
      "count": 15525,
      "type": "SCALAR"
    },
    {
      "bufferView": 2,
      "byteOffset": 247848,
      "componentType": 5126,
      "count": 4352,
      "max": [
        10.779485702514648,
        1.2658072710037231,
        14.281476020812988
      ],
      "min": [
        -16.735992431640625,
        -2.7195732593536377,
        -4.395659446716309
      ],
      "type": "VEC3"
    },
    {
      "bufferView": 2,
      "byteOffset": 300072,
      "componentType": 5126,
      "count": 4352,
      "max": [
        0.996677815914154,
        0.9999908804893494,
        0.8637533783912659
      ],
      "min": [
        -0.987170934677124,
        -0.9999788999557495,
        -0.8637523055076599
      ],
      "type": "VEC3"
    },
    {
      "bufferView": 1,
      "byteOffset": 82616,
      "componentType": 5126,
      "count": 4352,
      "max": [
        1.0,
        1.0
      ],
      "min": [
        4.470348358154297e-08,
        0.01524457335472107
      ],
      "type": "VEC2"
    },
    {
      "bufferView": 0,
      "byteOffset": 117780,
      "componentType": 5125,
      "count": 11040,
      "type": "SCALAR"
    },
    {
      "bufferView": 2,
      "byteOffset": 352296,
      "componentType": 5126,
      "count": 6090,
      "max": [
        12.97562026977539,
        1.398634910583496,
        13.722891807556152
      ],
      "min": [
        -15.671306610107422,
        -2.7983381748199463,
        -8.618456840515137
      ],
      "type": "VEC3"
    },
    {
      "bufferView": 2,
      "byteOffset": 425376,
      "componentType": 5126,
      "count": 6090,
      "max": [
        0.9966771006584167,
        0.9999908804893494,
        0.7037705779075623
      ],
      "min": [
        -0.9871716499328613,
        -0.9999762773513794,
        -0.8637462854385376
      ],
      "type": "VEC3"
    },
    {
      "bufferView": 1,
      "byteOffset": 117432,
      "componentType": 5126,
      "count": 6090,
      "max": [
        1.0,
        1.0
      ],
      "min": [
        4.470348358154297e-08,
        0.01524457335472107
      ],
      "type": "VEC2"
    },
    {
      "bufferView": 0,
      "byteOffset": 161940,
      "componentType": 5125,
      "count": 16206,
      "type": "SCALAR"
    },
    {
      "bufferView": 2,
      "byteOffset": 498456,
      "componentType": 5126,
      "count": 315,
      "max": [
        4.511600017547607,
        0.1510930061340332,
        6.080255508422852
      ],
      "min": [
        -5.6450371742248535,
        -0.8157565593719482,
        -6.924072265625
      ],
      "type": "VEC3"
    },
    {
      "bufferView": 2,
      "byteOffset": 502236,
      "componentType": 5126,
      "count": 315,
      "max": [
        0.9254090785980225,
        0.9997751712799072,
        0.3012382686138153
      ],
      "min": [
        -0.8969917893409729,
        -0.9998921751976013,
        -0.43624091148376465
      ],
      "type": "VEC3"
    },
    {
      "bufferView": 1,
      "byteOffset": 166152,
      "componentType": 5126,
      "count": 315,
      "max": [
        1.0,
        1.0
      ],
      "min": [
        4.470348358154297e-08,
        0.01524457335472107
      ],
      "type": "VEC2"
    },
    {
      "bufferView": 0,
      "byteOffset": 226764,
      "componentType": 5125,
      "count": 657,
      "type": "SCALAR"
    },
    {
      "bufferView": 2,
      "byteOffset": 506016,
      "componentType": 5126,
      "count": 992,
      "max": [
        1.0,
        1.0,
        1.0
      ],
      "min": [
        -1.9089784622192383,
        -1.0,
        -1.0
      ],
      "type": "VEC3"
    },
    {
      "bufferView": 2,
      "byteOffset": 517920,
      "componentType": 5126,
      "count": 992,
      "max": [
        1.0,
        0.9882820844650269,
        1.0
      ],
      "min": [
        -0.9877669215202332,
        -0.9883241057395935,
        -1.0
      ],
      "type": "VEC3"
    },
    {
      "bufferView": 1,
      "byteOffset": 168672,
      "componentType": 5126,
      "count": 992,
      "max": [
        1.0,
        1.0
      ],
      "min": [
        -1.564621925354004e-07,
        0.01000000536441803
      ],
      "type": "VEC2"
    },
    {
      "bufferView": 0,
      "byteOffset": 229392,
      "componentType": 5125,
      "count": 1656,
      "type": "SCALAR"
    },
    {
      "bufferView": 2,
      "byteOffset": 529824,
      "componentType": 5126,
      "count": 240,
      "max": [
        0.5602062940597534,
        0.5616653561592102,
        -8.310445785522461
      ],
      "min": [
        -0.5573608875274658,
        -0.555901825428009,
        -10.646154403686523
      ],
      "type": "VEC3"
    },
    {
      "bufferView": 2,
      "byteOffset": 532704,
      "componentType": 5126,
      "count": 240,
      "max": [
        1.0,
        1.0,
        1.0
      ],
      "min": [
        -1.0,
        -1.0,
        -1.0
      ],
      "type": "VEC3"
    },
    {
      "bufferView": 1,
      "byteOffset": 176608,
      "componentType": 5126,
      "count": 240,
      "max": [
        0.875,
        1.0
      ],
      "min": [
        0.125,
        0.0
      ],
      "type": "VEC2"
    },
    {
      "bufferView": 0,
      "byteOffset": 236016,
      "componentType": 5125,
      "count": 720,
      "type": "SCALAR"
    },
    {
      "bufferView": 2,
      "byteOffset": 535584,
      "componentType": 5126,
      "count": 126,
      "max": [
        0.1014227345585823,
        0.1028817743062973,
        25.726211547851563
      ],
      "min": [
        -0.09857726842164993,
        -0.09711822867393494,
        -8.506601333618164
      ],
      "type": "VEC3"
    },
    {
      "bufferView": 2,
      "byteOffset": 537096,
      "componentType": 5126,
      "count": 126,
      "max": [
        1.0,
        1.0,
        1.0
      ],
      "min": [
        -1.0,
        -1.0,
        -1.0
      ],
      "type": "VEC3"
    },
    {
      "bufferView": 1,
      "byteOffset": 178528,
      "componentType": 5126,
      "count": 126,
      "max": [
        0.875,
        1.0
      ],
      "min": [
        0.125,
        0.0
      ],
      "type": "VEC2"
    },
    {
      "bufferView": 0,
      "byteOffset": 238896,
      "componentType": 5125,
      "count": 432,
      "type": "SCALAR"
    },
    {
      "bufferView": 2,
      "byteOffset": 538608,
      "componentType": 5126,
      "count": 646,
      "max": [
        0.9763506054878235,
        1.0028817653656006,
        27.57411003112793
      ],
      "min": [
        -0.9735051989555359,
        -0.9971182346343994,
        -10.672468185424805
      ],
      "type": "VEC3"
    },
    {
      "bufferView": 2,
      "byteOffset": 546360,
      "componentType": 5126,
      "count": 646,
      "max": [
        1.0,
        1.0,
        1.0
      ],
      "min": [
        -1.0,
        -1.0,
        -1.0
      ],
      "type": "VEC3"
    },
    {
      "bufferView": 1,
      "byteOffset": 179536,
      "componentType": 5126,
      "count": 646,
      "max": [
        1.0,
        1.0
      ],
      "min": [
        -1.341104507446289e-07,
        0.0
      ],
      "type": "VEC2"
    },
    {
      "bufferView": 0,
      "byteOffset": 240624,
      "componentType": 5125,
      "count": 2196,
      "type": "SCALAR"
    },
    {
      "bufferView": 2,
      "byteOffset": 554112,
      "componentType": 5126,
      "count": 3586,
      "max": [
        27.788217544555664,
        14.159250259399414,
        1.9525786638259888
      ],
      "min": [
        -20.681577682495117,
        -15.941064834594727,
        -1.5436445474624634
      ],
      "type": "VEC3"
    },
    {
      "bufferView": 2,
      "byteOffset": 597144,
      "componentType": 5126,
      "count": 3586,
      "max": [
        0.99955153465271,
        0.9855514168739319,
        1.0
      ],
      "min": [
        -0.9995518326759338,
        -1.0,
        -1.0
      ],
      "type": "VEC3"
    },
    {
      "bufferView": 1,
      "byteOffset": 184704,
      "componentType": 5126,
      "count": 3586,
      "max": [
        1.0,
        1.0000001192092896
      ],
      "min": [
        0.0,
        0.0
      ],
      "type": "VEC2"
    },
    {
      "bufferView": 0,
      "byteOffset": 249408,
      "componentType": 5125,
      "count": 15537,
      "type": "SCALAR"
    },
    {
      "bufferView": 2,
      "byteOffset": 640176,
      "componentType": 5126,
      "count": 1008,
      "max": [
        23.91961097717285,
        2.504392147064209,
        -1.58083975315094
      ],
      "min": [
        -9.580337524414063,
        -23.141775131225586,
        -4.354533672332764
      ],
      "type": "VEC3"
    },
    {
      "bufferView": 2,
      "byteOffset": 652272,
      "componentType": 5126,
      "count": 1008,
      "max": [
        0.8939043879508972,
        0.984562337398529,
        0.9986070394515991
      ],
      "min": [
        -0.8301562666893005,
        -0.9525988698005676,
        -0.9986070394515991
      ],
      "type": "VEC3"
    },
    {
      "bufferView": 1,
      "byteOffset": 213392,
      "componentType": 5126,
      "count": 1008,
      "max": [
        1.0,
        1.0
      ],
      "min": [
        1.564621925354004e-07,
        0.01000000536441803
      ],
      "type": "VEC2"
    },
    {
      "bufferView": 0,
      "byteOffset": 311556,
      "componentType": 5125,
      "count": 2340,
      "type": "SCALAR"
    },
    {
      "bufferView": 2,
      "byteOffset": 664368,
      "componentType": 5126,
      "count": 55,
      "max": [
        18.357341766357422,
        0.05682802200317383,
        -1.8937407732009888
      ],
      "min": [
        -6.667198181152344,
        -16.82602310180664,
        -2.8104677200317383
      ],
      "type": "VEC3"
    },
    {
      "bufferView": 2,
      "byteOffset": 665028,
      "componentType": 5126,
      "count": 55,
      "max": [
        0.020908784121274948,
        -0.03659479692578316,
        -0.9977921843528748
      ],
      "min": [
        0.01665901578962803,
        -0.06303603202104568,
        -0.9991269111633301
      ],
      "type": "VEC3"
    },
    {
      "bufferView": 1,
      "byteOffset": 221456,
      "componentType": 5126,
      "count": 55,
      "max": [
        0.49000000953674316,
        0.49000000953674316
      ],
      "min": [
        0.01000000536441803,
        0.01000000536441803
      ],
      "type": "VEC2"
    },
    {
      "bufferView": 0,
      "byteOffset": 320916,
      "componentType": 5125,
      "count": 156,
      "type": "SCALAR"
    },
    {
      "bufferView": 2,
      "byteOffset": 665688,
      "componentType": 5126,
      "count": 1355,
      "max": [
        9.824738502502441,
        10.091716766357422,
        1.8123425245285034
      ],
      "min": [
        -14.279542922973633,
        -11.25815200805664,
        -2.576536178588867
      ],
      "type": "VEC3"
    },
    {
      "bufferView": 2,
      "byteOffset": 681948,
      "componentType": 5126,
      "count": 1355,
      "max": [
        0.900985598564148,
        0.9368165731430054,
        0.9999824166297913
      ],
      "min": [
        -0.9009853601455688,
        -0.9368168115615845,
        -0.9999824166297913
      ],
      "type": "VEC3"
    },
    {
      "bufferView": 1,
      "byteOffset": 221896,
      "componentType": 5126,
      "count": 1355,
      "max": [
        1.0,
        1.0
      ],
      "min": [
        1.564621925354004e-07,
        0.01000000536441803
      ],
      "type": "VEC2"
    },
    {
      "bufferView": 0,
      "byteOffset": 321540,
      "componentType": 5125,
      "count": 2718,
      "type": "SCALAR"
    }
  ],
  "asset": {
    "extras": {
      "author": "MrMcChickenXD (https://sketchfab.com/MrMcChickenXD)",
      "license": "SKETCHFAB Standard (https://sketchfab.com/licenses)",
      "source": "https://sketchfab.com/3d-models/3d-low-poly-coffee-table-set-b6bd307d18524b0883a8f772b67b3cf4",
      "title": "3D low poly coffee table set"
    },
    "generator": "Sketchfab-17.14.0",
    "version": "2.0"
  },
  "bufferViews": [
    {
      "buffer": 0,
      "byteLength": 332412,
      "name": "floatBufferViews",
      "target": 34963
    },
    {
      "buffer": 0,
      "byteLength": 232736,
      "byteOffset": 332412,
      "byteStride": 8,
      "name": "floatBufferViews",
      "target": 34962
    },
    {
      "buffer": 0,
      "byteLength": 698208,
      "byteOffset": 565148,
      "byteStride": 12,
      "name": "floatBufferViews",
      "target": 34962
    }
  ],
  "buffers": [
    {
      "byteLength": 1263356,
      "uri": "scene.bin"
    }
  ],
  "materials": [
    {
      "doubleSided": true,
      "name": "Material.245",
      "pbrMetallicRoughness": {
        "baseColorFactor": [
          0.0200437,
          0.0200437,
          0.0200437,
          1.0
        ],
        "metallicFactor": 0.0,
        "roughnessFactor": 0.9955180924279388
      }
    },
    {
      "doubleSided": true,
      "name": "Material.302",
      "pbrMetallicRoughness": {
        "baseColorFactor": [
          0.94464,
          1.0,
          0.695447,
          1.0
        ],
        "metallicFactor": 0.0,
        "roughnessFactor": 0.7731860209755337
      }
    },
    {
      "doubleSided": true,
      "name": "Material.055",
      "pbrMetallicRoughness": {
        "baseColorFactor": [
          0.145626,
          0.0302649,
          0.000892738,
          1.0
        ],
        "metallicFactor": 0.0,
        "roughnessFactor": 0.9882226300153693
      }
    },
    {
      "doubleSided": true,
      "name": "Material.014",
      "pbrMetallicRoughness": {
        "metallicFactor": 0.0,
        "roughnessFactor": 0.7763932022500211
      }
    },
    {
      "doubleSided": true,
      "name": "Material.162",
      "pbrMetallicRoughness": {
        "baseColorFactor": [
          0.184475,
          0.0512695,
          0.0,
          1.0
        ],
        "metallicFactor": 0.0
      }
    },
    {
      "doubleSided": true,
      "name": "Material.163",
      "pbrMetallicRoughness": {
        "baseColorFactor": [
          0.0822827,
          0.0822827,
          0.0822827,
          1.0
        ],
        "metallicFactor": 0.0,
        "roughnessFactor": 0.9811665844069853
      }
    },
    {
      "doubleSided": true,
      "name": "Material.164",
      "pbrMetallicRoughness": {
        "baseColorFactor": [
          0.0822827,
          0.0822827,
          0.0822827,
          1.0
        ],
        "metallicFactor": 0.0,
        "roughnessFactor": 0.9811646290588479
      }
    },
    {
      "doubleSided": true,
      "name": "Material.158",
      "pbrMetallicRoughness": {
        "baseColorFactor": [
          0.000765825,
          0.0447669,
          0.0,
          1.0
        ],
        "metallicFactor": 0.0
      }
    },
    {
      "doubleSided": true,
      "name": "Material.159",
      "pbrMetallicRoughness": {
        "baseColorFactor": [
          0.0953075,
          0.0781874,
          0.0684782,
          1.0
        ],
        "metallicFactor": 0.0,
        "roughnessFactor": 0.9791583200906261
      }
    },
    {
      "doubleSided": true,
      "name": "Material.160",
      "pbrMetallicRoughness": {
        "baseColorFactor": [
          0.184475,
          0.0423114,
          0.000303527,
          1.0
        ],
        "metallicFactor": 0.0,
        "roughnessFactor": 0.9882050494021105
      }
    },
    {
      "doubleSided": true,
      "name": "Material.161",
      "pbrMetallicRoughness": {
        "baseColorFactor": [
          0.00703387,
          0.0993488,
          0.0,
          1.0
        ],
        "metallicFactor": 0.0,
        "roughnessFactor": 0.9837774022856139
      }
    }
  ],
  "meshes": [
    {
      "name": "Cube.064_Material.302_0",
      "primitives": [
        {
          "attributes": {
            "NORMAL": 1,
            "POSITION": 0,
            "TEXCOORD_0": 2
          },
          "indices": 3,
          "material": 1,
          "mode": 4
        }
      ]
    },
    {
      "name": "Cube.064_Material.285_0",
      "primitives": [
        {
          "attributes": {
            "NORMAL": 5,
            "POSITION": 4,
            "TEXCOORD_0": 6
          },
          "indices": 7,
          "material": 0,
          "mode": 4
        }
      ]
    },
    {
      "name": "Cube.064_Material.098_0",
      "primitives": [
        {
          "attributes": {
            "NORMAL": 9,
            "POSITION": 8,
            "TEXCOORD_0": 10
          },
          "indices": 11,
          "material": 3,
          "mode": 4
        }
      ]
    },
    {
      "name": "Cube.064_Material.028_0",
      "primitives": [
        {
          "attributes": {
            "NORMAL": 13,
            "POSITION": 12,
            "TEXCOORD_0": 14
          },
          "indices": 15,
          "material": 3,
          "mode": 4
        }
      ]
    },
    {
      "name": "Cube.064_Material.097_0",
      "primitives": [
        {
          "attributes": {
            "NORMAL": 17,
            "POSITION": 16,
            "TEXCOORD_0": 18
          },
          "indices": 19,
          "material": 2,
          "mode": 4
        }
      ]
    },
    {
      "name": "Cube.064_Material.045_0",
      "primitives": [
        {
          "attributes": {
            "NORMAL": 21,
            "POSITION": 20,
            "TEXCOORD_0": 22
          },
          "indices": 23,
          "material": 2,
          "mode": 4
        }
      ]
    },
    {
      "name": "Cylinder_Material.157_0",
      "primitives": [
        {
          "attributes": {
            "NORMAL": 25,
            "POSITION": 24,
            "TEXCOORD_0": 26
          },
          "indices": 27,
          "material": 3,
          "mode": 4
        }
      ]
    },
    {
      "name": "Cylinder.001_Material.164_0",
      "primitives": [
        {
          "attributes": {
            "NORMAL": 29,
            "POSITION": 28,
            "TEXCOORD_0": 30
          },
          "indices": 31,
          "material": 6,
          "mode": 4
        }
      ]
    },
    {
      "name": "Cylinder.001_Material.163_0",
      "primitives": [
        {
          "attributes": {
            "NORMAL": 33,
            "POSITION": 32,
            "TEXCOORD_0": 34
          },
          "indices": 35,
          "material": 5,
          "mode": 4
        }
      ]
    },
    {
      "name": "Cylinder.001_Material.162_0",
      "primitives": [
        {
          "attributes": {
            "NORMAL": 37,
            "POSITION": 36,
            "TEXCOORD_0": 38
          },
          "indices": 39,
          "material": 4,
          "mode": 4
        }
      ]
    },
    {
      "name": "Plane.003_Material.158_0",
      "primitives": [
        {
          "attributes": {
            "NORMAL": 41,
            "POSITION": 40,
            "TEXCOORD_0": 42
          },
          "indices": 43,
          "material": 7,
          "mode": 4
        }
      ]
    },
    {
      "name": "Plane.003_Material.159_0",
      "primitives": [
        {
          "attributes": {
            "NORMAL": 45,
            "POSITION": 44,
            "TEXCOORD_0": 46
          },
          "indices": 47,
          "material": 8,
          "mode": 4
        }
      ]
    },
    {
      "name": "Plane.003_Material.160_0",
      "primitives": [
        {
          "attributes": {
            "NORMAL": 49,
            "POSITION": 48,
            "TEXCOORD_0": 50
          },
          "indices": 51,
          "material": 9,
          "mode": 4
        }
      ]
    },
    {
      "name": "Plane.003_Material.161_0",
      "primitives": [
        {
          "attributes": {
            "NORMAL": 53,
            "POSITION": 52,
            "TEXCOORD_0": 54
          },
          "indices": 55,
          "material": 10,
          "mode": 4
        }
      ]
    }
  ],
  "nodes": [
    {
      "children": [
        1
      ],
      "matrix": [
        1.0,
        0.0,
        0.0,
        0.0,
        0.0,
        2.220446049250313e-16,
        -1.0,
        0.0,
        0.0,
        1.0,
        2.220446049250313e-16,
        0.0,
        0.0,
        0.0,
        0.0,
        1.0
      ],
      "name": "Sketchfab_model"
    },
    {
      "children": [
        2
      ],
      "matrix": [
        0.009999999776482582,
        0.0,
        0.0,
        0.0,
        0.0,
        0.0,
        0.009999999776482582,
        0.0,
        0.0,
        -0.009999999776482582,
        0.0,
        0.0,
        0.0,
        0.0,
        0.0,
        1.0
      ],
      "name": "052220496c3444f79fdc1edec05aa611.fbx"
    },
    {
      "children": [
        3,
        10,
        12,
        16
      ],
      "name": "RootNode"
    },
    {
      "children": [
        4,
        5,
        6,
        7,
        8,
        9
      ],
      "matrix": [
        10.33196791796215,
        0.8868055446362061,
        -3.344671713798858,
        0.0,
        -27.756783876067317,
        14.237986800473532,
        -81.96794733042273,
        0.0,
        -0.1844906112611415,
        6.915958896062568,
        1.2637890891803198,
        0.0,
        139.4155731201172,
        896.2056274414063,
        -1740.336669921875,
        1.0
      ],
      "name": "Cube.064"
    },
    {
      "mesh": 0,
      "name": "Cube.064_Material.302_0"
    },
    {
      "mesh": 1,
      "name": "Cube.064_Material.285_0"
    },
    {
      "mesh": 2,
      "name": "Cube.064_Material.098_0"
    },
    {
      "mesh": 3,
      "name": "Cube.064_Material.028_0"
    },
    {
      "mesh": 4,
      "name": "Cube.064_Material.097_0"
    },
    {
      "mesh": 5,
      "name": "Cube.064_Material.045_0"
    },
    {
      "children": [
        11
      ],
      "matrix": [
        90.0,
        0.0,
        0.0,
        0.0,
        0.0,
        -2.5391697224819154e-05,
        -89.99999999999642,
        0.0,
        0.0,
        94.99999999999622,
        -2.680234707064244e-05,
        0.0,
        0.0,
        920.0523681640625,
        1690.514892578125,
        1.0
      ],
      "name": "Cylinder"
    },
    {
      "mesh": 6,
      "name": "Cylinder_Material.157_0"
    },
    {
      "children": [
        13,
        14,
        15
      ],
      "matrix": [
        1000.0,
        0.0,
        0.0,
        0.0,
        -0.0,
        -0.00028212996916465727,
        -999.9999999999602,
        0.0,
        0.0,
        32.864002227781896,
        -9.271919935151703e-06,
        0.0,
        -0.14227300882339478,
        -87.33314514160156,
        0.288177490234375,
        1.0
      ],
      "name": "Cylinder.001"
    },
    {
      "mesh": 7,
      "name": "Cylinder.001_Material.164_0"
    },
    {
      "mesh": 8,
      "name": "Cylinder.001_Material.163_0"
    },
    {
      "mesh": 9,
      "name": "Cylinder.001_Material.162_0"
    },
    {
      "children": [
        17,
        18,
        19,
        20
      ],
      "matrix": [
        7.162786672273765,
        -1.6787992000160799,
        2.812685236307836,
        -0.0,
        -2.7499967636970544,
        4.395441011842931,
        9.62663815797183,
        -0.0,
        33.12161387597592,
        89.0488068233015,
        -31.19723019305152,
        -0.0,
        12.980840682983398,
        1295.275634765625,
        2619.863037109375,
        1.0
      ],
      "name": "Plane.003"
    },
    {
      "mesh": 10,
      "name": "Plane.003_Material.158_0"
    },
    {
      "mesh": 11,
      "name": "Plane.003_Material.159_0"
    },
    {
      "mesh": 12,
      "name": "Plane.003_Material.160_0"
    },
    {
      "mesh": 13,
      "name": "Plane.003_Material.161_0"
    }
  ],
  "scene": 0,
  "scenes": [
    {
      "name": "Sketchfab_Scene",
      "nodes": [
        0
      ]
    }
  ]
}
