# Blender 5.1.2
# www.blender.org
mtllib clerk 1.mtl
o Cube
v 0.041310 -0.014793 0.192751
v 0.216825 0.263149 -0.025943
v 0.041310 -0.014792 -0.187551
v 0.216825 0.263149 -0.171147
v 0.219040 -0.014793 0.192752
v 0.080131 0.261222 -0.171147
v 0.219040 -0.014792 -0.187550
v 0.080131 0.261222 -0.025943
v 0.055760 0.071121 0.172067
v 0.039384 0.044148 -0.179844
v 0.219040 0.041258 -0.179843
v 0.219040 0.071121 0.172067
v 0.065393 0.099334 0.076370
v 0.065393 0.099334 -0.177917
v 0.216150 0.099334 0.076370
v 0.216150 0.099334 -0.177917
v 0.041310 0.019494 -0.183697
v 0.219040 0.019495 -0.183697
v 0.219040 0.039724 0.189153
v 0.039384 0.042614 0.189152
v 0.077097 0.180278 -0.017655
v 0.077097 0.180278 -0.168752
v 0.209263 0.181241 -0.168752
v 0.209262 0.181241 -0.017654
vn -0.0000 -1.0000 -0.0000
vn 0.0042 0.4946 0.8691
vn 1.0000 -0.0000 -0.0000
vn 0.0013 0.1638 -0.9865
vn -0.9649 0.2626 0.0011
vn -0.9897 0.1431 -0.0000
vn -0.0004 0.1119 -0.9937
vn 0.9965 0.0838 -0.0000
vn -0.0026 0.7560 0.6546
vn -0.0000 0.9592 0.2828
vn -0.9167 0.3996 0.0070
vn 0.0003 0.0339 -0.9994
vn 0.9980 0.0635 -0.0031
vn -0.9998 -0.0210 -0.0019
vn -0.0000 0.1117 -0.9937
vn 0.0005 0.0642 0.9979
vn -0.0011 0.1013 0.9949
vn 0.9958 -0.0919 -0.0000
vn 0.0003 -0.0294 -0.9996
vn -0.9993 0.0375 -0.0000
vn -0.0141 0.9999 -0.0000
vt 0.185790 0.500000
vt 0.375000 0.500000
vt 0.375000 0.750000
vt 0.185791 0.750000
vt 0.437500 0.750000
vt 0.500000 0.750000
vt 0.500000 0.939209
vt 0.437500 0.939209
vt 0.437500 0.500000
vt 0.500000 0.500000
vt 0.437500 0.310790
vt 0.500000 0.310790
vt 0.437500 0.000000
vt 0.500000 0.000000
vt 0.770470 0.722992
vt 0.770470 0.527008
vt 0.814210 0.500000
vt 0.814209 0.750000
vt 0.613686 0.527008
vt 0.551596 0.500000
vt 0.613686 0.722992
vt 0.551596 0.750000
vt 0.527128 0.939209
vt 0.527128 0.000000
vt 0.527128 0.310790
vt 0.375000 0.000000
vt 0.375000 0.310791
vt 0.375000 0.939209
vt 0.675776 0.695983
vt 0.726732 0.695983
vt 0.675776 0.554017
vt 0.726731 0.554017
s 0
f 3/1/1 7/2/1 5/3/1 1/4/1
f 19/5/2 12/6/2 9/7/2 20/8/2
f 18/9/3 11/10/3 12/6/3 19/5/3
f 17/11/4 10/12/4 11/10/4 18/9/4
f 20/13/5 9/14/5 10/12/5 17/11/5
f 21/15/6 22/16/6 14/17/6 13/18/6
f 22/16/7 23/19/7 16/20/7 14/17/7
f 23/19/8 24/21/8 15/22/8 16/20/8
f 24/21/9 21/15/9 13/18/9 15/22/9
f 12/6/10 15/22/10 13/23/10 9/7/10
f 9/14/11 13/24/11 14/25/11 10/12/11
f 10/12/12 14/25/12 16/20/12 11/10/12
f 11/10/13 16/20/13 15/22/13 12/6/13
f 1/26/14 20/13/14 17/11/14 3/27/14
f 3/27/15 17/11/15 18/9/15 7/2/15
f 7/2/3 18/9/3 19/5/3 5/3/3
f 5/3/16 19/5/16 20/8/16 1/28/16
f 2/29/17 8/30/17 21/15/17 24/21/17
f 4/31/18 2/29/18 24/21/18 23/19/18
f 6/32/19 4/31/19 23/19/19 22/16/19
f 8/30/20 6/32/20 22/16/20 21/15/20
f 6/32/21 8/30/21 2/29/21 4/31/21
o Cylinder
v -0.149234 0.251653 -0.142674
v -0.098058 0.981132 -0.173175
v -0.100494 0.251653 -0.112382
v -0.021125 0.970405 -0.116740
v -0.119111 0.251653 -0.071176
v -0.050511 0.974503 0.019236
v -0.179356 0.251653 -0.071175
v -0.150999 0.988514 0.019236
v -0.197973 0.251653 -0.112382
v -0.180384 0.992612 -0.116740
v -0.136707 0.558813 -0.156835
v -0.073499 0.565349 -0.105846
v -0.084571 0.586044 -0.028148
v -0.162700 0.586044 -0.028148
v -0.198825 0.537026 -0.105846
v -0.120640 0.640496 -0.137772
v -0.067627 0.643764 -0.090596
v -0.094533 0.654113 -0.026243
v -0.154371 0.654113 -0.026242
v -0.181277 0.643764 -0.090596
v 0.149234 0.251651 -0.142675
v 0.098058 0.981132 -0.173175
v 0.100494 0.251651 -0.112382
v 0.021126 0.970405 -0.116740
v 0.119111 0.251651 -0.071176
v 0.050511 0.974502 0.019236
v 0.179356 0.251651 -0.071176
v 0.150999 0.988514 0.019236
v 0.197973 0.251651 -0.112382
v 0.180384 0.992612 -0.116739
v 0.136707 0.558809 -0.156835
v 0.073499 0.565345 -0.105847
v 0.084571 0.586042 -0.028149
v 0.162700 0.586042 -0.028148
v 0.198825 0.537023 -0.105846
v 0.120640 0.640495 -0.137773
v 0.067626 0.643763 -0.090597
v 0.094533 0.654111 -0.026242
v 0.154372 0.654111 -0.026242
v 0.181278 0.643763 -0.090596
vn 0.6129 -0.1353 -0.7785
vn 0.9504 -0.1412 0.2772
vn -0.0119 -0.1367 0.9905
vn -0.9627 -0.0016 0.2706
vn -0.5895 -0.0519 -0.8061
vn -0.5915 0.0013 -0.8063
vn -0.9066 -0.0106 0.4218
vn -0.0000 -0.1276 0.9918
vn 0.9595 -0.1109 0.2589
vn 0.5887 -0.0474 -0.8070
vn -0.6277 0.2465 -0.7384
vn -0.9243 0.1007 0.3681
vn -0.0000 -0.0280 0.9996
vn 0.9659 -0.0034 0.2590
vn 0.6396 0.0763 -0.7649
vn -0.6129 -0.1353 -0.7785
vn -0.9504 -0.1412 0.2772
vn 0.0119 -0.1367 0.9905
vn 0.9627 -0.0016 0.2706
vn 0.5895 -0.0519 -0.8061
vn 0.5915 0.0013 -0.8063
vn 0.9066 -0.0106 0.4218
vn -0.9595 -0.1109 0.2589
vn -0.5887 -0.0474 -0.8070
vn 0.6277 0.2464 -0.7384
vn 0.9243 0.1007 0.3681
vn -0.9659 -0.0034 0.2590
vn -0.6396 0.0763 -0.7649
vt 0.661815 0.563815
vt 0.661815 0.580853
vt 0.648185 0.580853
vt 0.648185 0.563815
vt 0.634554 0.580853
vt 0.634554 0.563815
vt 0.620924 0.580853
vt 0.620924 0.563815
vt 0.607294 0.580853
vt 0.607294 0.563815
vt 0.593664 0.580853
vt 0.593664 0.563815
vt 0.607294 0.512703
vt 0.607294 0.546778
vt 0.593664 0.546778
vt 0.593664 0.512703
vt 0.620924 0.512703
vt 0.620924 0.546778
vt 0.634554 0.512703
vt 0.634554 0.546778
vt 0.648185 0.512703
vt 0.648185 0.546778
vt 0.661815 0.512703
vt 0.661815 0.546778
s 0
usemtl Material.009
f 40/33/22 26/34/22 28/35/22 41/36/22
f 41/36/23 28/35/23 30/37/23 42/38/23
f 42/38/24 30/37/24 32/39/24 43/40/24
f 43/40/25 32/39/25 34/41/25 44/42/25
f 44/42/26 34/41/26 26/43/26 40/44/26
f 33/45/27 39/46/27 35/47/27 25/48/27
f 31/49/28 38/50/28 39/46/28 33/45/28
f 29/51/29 37/52/29 38/50/29 31/49/29
f 27/53/30 36/54/30 37/52/30 29/51/30
f 25/55/31 35/56/31 36/54/31 27/53/31
f 39/46/32 44/42/32 40/44/32 35/47/32
f 38/50/33 43/40/33 44/42/33 39/46/33
f 37/52/34 42/38/34 43/40/34 38/50/34
f 36/54/35 41/36/35 42/38/35 37/52/35
f 35/56/36 40/33/36 41/36/36 36/54/36
f 60/33/37 61/36/37 48/35/37 46/34/37
f 61/36/38 62/38/38 50/37/38 48/35/38
f 62/38/39 63/40/39 52/39/39 50/37/39
f 63/40/40 64/42/40 54/41/40 52/39/40
f 64/42/41 60/44/41 46/43/41 54/41/41
f 53/45/42 45/48/42 55/47/42 59/46/42
f 51/49/43 53/45/43 59/46/43 58/50/43
f 49/51/29 51/49/29 58/50/29 57/52/29
f 47/53/44 49/51/44 57/52/44 56/54/44
f 45/55/45 47/53/45 56/54/45 55/56/45
f 59/46/46 55/47/46 60/44/46 64/42/46
f 58/50/47 59/46/47 64/42/47 63/40/47
f 57/52/34 58/50/34 63/40/34 62/38/34
f 56/54/48 57/52/48 62/38/48 61/36/48
f 55/56/49 56/54/49 61/36/49 60/33/49
o Cube.001
v -0.204934 0.988676 0.046325
v -0.122333 1.289251 0.046325
v -0.204933 0.988676 -0.196145
v -0.122333 1.289251 -0.142597
v -0.001383 0.972726 -0.196145
v 0.008871 1.283125 -0.142597
v -0.001383 0.972726 0.046325
v 0.008871 1.283125 0.046325
v -0.194316 1.031868 0.046325
v -0.194316 1.031868 -0.189879
v -0.003456 1.017342 0.046325
v -0.003456 1.017342 -0.189878
v -0.171427 1.140621 0.046325
v -0.171427 1.140621 -0.202117
v 0.008119 1.135922 0.046325
v 0.008119 1.135922 -0.202117
v -0.182871 1.086814 -0.196888
v 0.008313 1.053276 0.046325
v 0.008313 1.053276 -0.196888
v -0.182871 1.086814 0.046325
v 0.219256 0.988676 0.046325
v 0.136656 1.289251 0.046325
v 0.219256 0.988676 -0.196144
v 0.136656 1.289251 -0.142597
v 0.015706 0.972726 -0.196145
v 0.005453 1.283125 -0.142597
v 0.015707 0.972725 0.046325
v 0.005453 1.283125 0.046325
v 0.208639 1.031868 0.046325
v 0.208638 1.031868 -0.189878
v 0.017780 1.017342 0.046325
v 0.017779 1.017342 -0.189878
v 0.185750 1.140621 0.046325
v 0.185749 1.140621 -0.202117
v 0.006204 1.135922 0.046325
v 0.006204 1.135922 -0.202117
v 0.197194 1.086814 -0.196888
v 0.006011 1.053276 0.046325
v 0.006010 1.053276 -0.196888
v 0.197194 1.086814 0.046325
vn -0.9495 0.3136 -0.0000
vn -0.0000 -0.0000 1.0000
vn 0.0466 0.9989 -0.0000
vn -0.0781 -0.9969 -0.0000
vn 0.0129 0.3714 -0.9284
vn 0.0108 0.1403 -0.9901
vn -0.9711 0.2387 -0.0000
vn -0.0078 -0.0758 -0.9971
vn -0.9781 0.2080 -0.0000
vn -0.9790 0.2039 -0.0000
vn -0.0186 -0.1478 -0.9888
vn 0.9503 -0.3112 -0.0000
vn 0.9989 0.0464 -0.0000
vn 0.9495 0.3136 -0.0000
vn -0.0466 0.9989 -0.0000
vn 0.0781 -0.9969 -0.0000
vn -0.0129 0.3714 -0.9284
vn -0.0108 0.1403 -0.9901
vn 0.9711 0.2387 -0.0000
vn 0.0078 -0.0758 -0.9971
vn 0.9781 0.2080 -0.0000
vn 0.9790 0.2039 -0.0000
vn 0.0186 -0.1478 -0.9888
vn -0.9503 -0.3112 -0.0000
vn -0.9989 0.0464 -0.0000
vt 0.458523 0.899787
vt 0.442901 0.993558
vt 0.378838 0.982374
vt 0.380543 0.896236
vt 0.208638 0.885819
vt 0.208500 0.984050
vt 0.151019 0.990648
vt 0.136489 0.896986
vt 0.750000 0.500000
vt 0.875000 0.500000
vt 0.875000 0.750000
vt 0.750000 0.750000
vt 0.125000 0.500000
vt 0.250000 0.500000
vt 0.250000 0.750000
vt 0.125000 0.750000
vt 0.270600 0.866066
vt 0.256594 0.950873
vt 0.219162 0.947378
vt 0.219376 0.863385
vt 0.280159 0.779367
vt 0.277130 0.804012
vt 0.222678 0.795724
vt 0.222087 0.770266
vt 0.199022 0.772607
vt 0.200687 0.795412
vt 0.123848 0.808590
vt 0.120984 0.778837
vt 0.460299 0.771191
vt 0.458878 0.795836
vt 0.383324 0.794416
vt 0.380471 0.769771
vt 0.273865 0.835364
vt 0.219321 0.816228
vt 0.208308 0.816200
vt 0.132151 0.859127
vt 0.458168 0.875476
vt 0.382034 0.871215
vt 0.461145 0.799097
vt 0.463145 0.819601
vt 0.393757 0.819601
vt 0.393757 0.799097
vt 0.462933 0.773639
vt 0.393757 0.773639
s 0
usemtl Material.004
f 77/57/50 66/58/50 68/59/50 78/60/50
f 79/61/51 72/62/51 66/63/51 77/64/51
f 70/65/52 68/66/52 66/67/52 72/68/52
f 67/69/53 69/70/53 71/71/53 65/72/53
f 78/73/54 68/74/54 70/75/54 80/76/54
f 67/77/55 74/78/55 76/79/55 69/80/55
f 71/81/51 75/82/51 73/83/51 65/84/51
f 65/85/56 73/86/56 74/87/56 67/88/56
f 81/89/57 78/73/57 80/76/57 83/90/57
f 82/91/51 79/61/51 77/64/51 84/92/51
f 84/93/58 77/57/58 78/60/58 81/94/58
f 73/86/59 84/93/59 81/94/59 74/87/59
f 75/82/51 82/91/51 84/92/51 73/83/51
f 74/78/60 81/89/60 83/90/60 76/79/60
f 76/95/61 83/96/61 82/97/61 75/98/61
f 69/99/62 76/95/62 75/98/62 71/100/62
f 97/57/63 98/60/63 88/59/63 86/58/63
f 99/61/51 97/64/51 86/63/51 92/62/51
f 90/65/64 92/68/64 86/67/64 88/66/64
f 87/69/65 85/72/65 91/71/65 89/70/65
f 98/73/66 100/76/66 90/75/66 88/74/66
f 87/77/67 89/80/67 96/79/67 94/78/67
f 91/81/51 85/84/51 93/83/51 95/82/51
f 85/85/68 87/88/68 94/87/68 93/86/68
f 101/89/69 103/90/69 100/76/69 98/73/69
f 102/91/51 104/92/51 97/64/51 99/61/51
f 104/93/70 101/94/70 98/60/70 97/57/70
f 93/86/71 94/87/71 101/94/71 104/93/71
f 95/82/51 93/83/51 104/92/51 102/91/51
f 94/78/72 96/79/72 103/90/72 101/89/72
f 96/95/73 95/98/73 102/97/73 103/96/73
f 89/99/74 91/100/74 95/98/74 96/95/74
o Cube.002
v -0.121763 1.283459 0.045193
v -0.142849 1.516635 0.086157
v -0.121763 1.283459 -0.143507
v -0.142849 1.577496 -0.183301
v -0.118803 1.388343 0.061579
v -0.118803 1.388343 -0.168086
v -0.161263 1.692196 -0.034395
v -0.161263 1.693367 -0.168086
v -0.016500 1.717946 -0.056633
v -0.016500 1.717946 -0.143507
v 0.020739 1.283459 -0.143507
v 0.020739 1.577496 -0.183301
v 0.020739 1.283459 0.045193
v 0.020739 1.516635 0.086157
v 0.020739 1.388343 0.061579
v 0.020739 1.388343 -0.168086
v 0.020739 1.693367 -0.168086
v 0.020739 1.692196 -0.034395
v 0.020739 1.717946 -0.143507
v 0.020739 1.717946 -0.056633
v 0.157401 1.283459 0.045193
v 0.178487 1.516635 0.086157
v 0.157401 1.283459 -0.143507
v 0.178487 1.577496 -0.183301
v 0.154441 1.388343 0.061579
v 0.154441 1.388343 -0.168086
v 0.196901 1.692196 -0.034395
v 0.196901 1.693367 -0.168086
v 0.052138 1.717945 -0.056633
v 0.052138 1.717946 -0.143507
v 0.014899 1.283459 -0.143507
v 0.014899 1.577496 -0.183301
v 0.014899 1.283459 0.045193
v 0.014899 1.516635 0.086157
v 0.014899 1.388343 0.061579
v 0.014899 1.388343 -0.168086
v 0.014899 1.693367 -0.168086
v 0.014899 1.692196 -0.034395
v 0.014899 1.717946 -0.143507
v 0.014899 1.717945 -0.056633
vn -0.9886 -0.1492 -0.0182
vn -0.0000 -0.1882 0.9821
vn -0.0000 0.1302 -0.9915
vn -0.0000 -0.1544 0.9880
vn -0.9996 0.0282 -0.0000
vn -0.9910 -0.1326 -0.0204
vn -0.0000 1.0000 -0.0000
vn -0.0000 0.7071 -0.7071
vn -0.1713 0.9852 0.0052
vn -0.0000 0.5661 0.8244
vn -0.0000 0.6536 0.7568
vn -0.0000 -0.2282 -0.9736
vn -0.0000 -1.0000 -0.0000
vn -0.0000 -0.0802 -0.9968
vn 0.9886 -0.1492 -0.0182
vn 0.9996 0.0282 -0.0000
vn 0.9910 -0.1326 -0.0204
vn 0.1713 0.9852 0.0052
vt 0.327087 0.139051
vt 0.347259 0.298603
vt 0.237058 0.306890
vt 0.235891 0.139051
vt 0.084749 0.175079
vt 0.085077 0.251562
vt 0.020038 0.249594
vt 0.032475 0.164584
vt 0.086683 0.253596
vt 0.164204 0.250392
vt 0.160634 0.393047
vt 0.089086 0.391446
vt 0.082781 0.031269
vt 0.029334 0.032581
vt 0.320580 0.055757
vt 0.245651 0.055757
vt 0.288977 0.380360
vt 0.235891 0.381289
vt 0.750000 0.500000
vt 0.875000 0.500000
vt 0.875000 0.750000
vt 0.750000 0.750000
vt 0.105346 0.440686
vt 0.091489 0.439084
vt 0.103908 0.410408
vt 0.103908 0.334125
vt 0.159625 0.342008
vt 0.159625 0.391578
vt 0.089013 0.387814
vt 0.016097 0.387814
vt 0.089997 0.437929
vt 0.070517 0.432681
vt 0.142635 0.031899
vt 0.151018 0.170238
vt 0.085081 0.175043
vt 0.083479 0.031899
vt 0.125000 0.500000
vt 0.250000 0.500000
vt 0.250000 0.750000
vt 0.125000 0.750000
s 0
usemtl Material.003
f 109/101/75 106/102/75 108/103/75 110/104/75
f 119/105/76 118/106/76 106/107/76 109/108/76
f 116/109/77 108/110/77 112/111/77 121/112/77
f 117/113/78 119/105/78 109/108/78 105/114/78
f 105/115/79 109/101/79 110/104/79 107/116/79
f 108/103/80 106/102/80 111/117/80 112/118/80
f 123/119/81 114/120/81 113/121/81 124/122/81
f 121/112/82 112/111/82 114/123/82 123/124/82
f 112/125/83 111/126/83 113/127/83 114/128/83
f 106/107/84 118/106/84 122/129/84 111/130/84
f 111/130/85 122/129/85 124/131/85 113/132/85
f 107/133/86 110/134/86 120/135/86 115/136/86
f 107/137/87 115/138/87 117/139/87 105/140/87
f 110/134/88 108/110/88 116/109/88 120/135/88
f 129/101/89 130/104/89 128/103/89 126/102/89
f 139/105/76 129/108/76 126/107/76 138/106/76
f 136/109/77 141/112/77 132/111/77 128/110/77
f 137/113/78 125/114/78 129/108/78 139/105/78
f 125/115/90 127/116/90 130/104/90 129/101/90
f 128/103/91 132/118/91 131/117/91 126/102/91
f 143/119/81 144/122/81 133/121/81 134/120/81
f 141/112/82 143/124/82 134/123/82 132/111/82
f 132/125/92 134/128/92 133/127/92 131/126/92
f 126/107/84 131/130/84 142/129/84 138/106/84
f 131/130/85 133/132/85 144/131/85 142/129/85
f 127/133/86 135/136/86 140/135/86 130/134/86
f 127/137/87 125/140/87 137/139/87 135/138/87
f 130/134/88 140/135/88 136/109/88 128/110/88
o Cube.003
v -0.279187 1.339303 -0.081241
v -0.344002 1.395318 -0.081241
v -0.279187 1.339303 -0.163034
v -0.344002 1.395318 -0.163034
v -0.140680 1.552164 -0.065037
v -0.160566 1.691407 -0.047360
v -0.140680 1.552164 -0.163034
v -0.160566 1.691407 -0.163034
v -0.402009 1.122412 -0.093958
v -0.456883 1.145289 -0.093958
v -0.402009 1.122412 -0.150317
v -0.456883 1.145289 -0.150317
v -0.290892 1.318671 -0.163034
v -0.372276 1.358117 -0.163034
v -0.372276 1.358117 -0.071300
v -0.290892 1.318671 -0.071300
vn -0.0233 -0.0509 -0.9984
vn -0.0000 -0.0000 -1.0000
vn 0.9900 0.1414 -0.0000
vn -0.0074 -0.0933 0.9956
vn 0.8382 -0.5454 -0.0000
vn -0.8501 0.5267 -0.0000
vn -0.3848 -0.9230 -0.0000
vn -0.0414 -0.0904 0.9950
vn -0.9293 0.3694 -0.0000
vn 0.8702 -0.4927 -0.0000
vn 0.8698 -0.4935 -0.0000
vn -0.7962 0.6051 -0.0000
vn 0.1488 0.2279 0.9622
vt 0.647126 0.561597
vt 0.615966 0.561597
vt 0.647126 0.592757
vt 0.615966 0.592757
vt 0.647126 0.623917
vt 0.615966 0.623917
vt 0.647126 0.655078
vt 0.615966 0.655078
vt 0.584806 0.592757
vt 0.584806 0.623917
vt 0.678287 0.592757
vt 0.678287 0.623917
vt 0.615966 0.530436
vt 0.647126 0.530436
s 0
usemtl Material.006
f 158/141/93 157/142/93 155/142/93 156/141/93
f 147/142/94 148/141/94 152/143/94 151/144/94
f 151/144/95 152/143/95 150/145/95 149/146/95
f 149/146/96 150/145/96 146/147/96 145/148/96
f 147/149/97 151/144/97 149/146/97 145/150/97
f 152/143/98 148/151/98 146/152/98 150/145/98
f 153/153/99 154/154/99 156/141/99 155/142/99
f 160/148/100 159/147/100 154/147/100 153/148/100
f 159/152/101 158/151/101 156/151/101 154/152/101
f 157/149/102 160/150/102 153/150/102 155/149/102
f 147/149/103 145/150/103 160/150/103 157/149/103
f 146/152/104 148/151/104 158/151/104 159/152/104
f 145/148/105 146/147/105 159/147/105 160/148/105
f 148/141/94 147/142/94 157/142/94 158/141/94
o Cube.004
v -0.505357 1.004680 -0.094421
v -0.457308 1.144083 -0.094421
v -0.501343 1.004680 -0.156532
v -0.453294 1.144083 -0.149904
v -0.455424 0.993082 -0.094421
v -0.404062 1.120887 -0.094421
v -0.451410 0.993082 -0.156532
v -0.400047 1.120887 -0.149904
v -0.503024 1.077507 -0.056932
v -0.499009 1.077507 -0.187393
v -0.397410 1.053031 -0.187393
v -0.401425 1.053031 -0.056932
v -0.500176 1.041093 -0.168648
v -0.416954 1.015600 -0.168648
v -0.420969 1.015600 -0.075676
v -0.504190 1.041093 -0.075676
vn -0.8238 0.5657 -0.0356
vn 0.1380 0.4483 -0.8831
vn 0.9983 0.0388 0.0431
vn 0.1380 0.4483 0.8831
vn -0.2262 -0.9740 -0.0146
vn 0.3992 0.9164 0.0289
vn -0.1146 -0.4239 0.8984
vn 0.8860 -0.4626 0.0318
vn -0.1146 -0.4239 -0.8984
vn -0.9988 0.0320 -0.0359
vn -0.9980 0.0367 -0.0517
vn -0.0921 -0.3306 -0.9393
vn 0.5450 -0.8380 0.0282
vn -0.1320 -0.4740 0.8706
vt 0.631546 0.530436
vt 0.647126 0.530436
vt 0.647126 0.561597
vt 0.631546 0.561597
vt 0.647126 0.592757
vt 0.631546 0.592757
vt 0.647126 0.623917
vt 0.631546 0.623917
vt 0.647126 0.655078
vt 0.631546 0.655078
vt 0.584806 0.592757
vt 0.615966 0.592757
vt 0.615966 0.623917
vt 0.584806 0.623917
vt 0.678287 0.592757
vt 0.678287 0.623917
vt 0.623756 0.623917
vt 0.623756 0.655078
vt 0.623756 0.592757
vt 0.623756 0.561597
vt 0.623756 0.530436
vt 0.615966 0.530436
vt 0.615966 0.561597
vt 0.615966 0.655078
s 0
usemtl Material.005
f 169/155/106 162/156/106 164/157/106 170/158/106
f 170/158/107 164/157/107 168/159/107 171/160/107
f 171/160/108 168/159/108 166/161/108 172/162/108
f 172/162/109 166/161/109 162/163/109 169/164/109
f 163/165/110 167/166/110 165/167/110 161/168/110
f 168/159/111 164/169/111 162/170/111 166/161/111
f 175/171/112 172/162/112 169/164/112 176/172/112
f 174/173/113 171/160/113 172/162/113 175/171/113
f 173/174/114 170/158/114 171/160/114 174/173/114
f 176/175/115 169/155/115 170/158/115 173/174/115
f 161/176/116 176/175/116 173/174/116 163/177/116
f 163/177/117 173/174/117 174/173/117 167/166/117
f 167/166/118 174/173/118 175/171/118 165/167/118
f 165/167/119 175/171/119 176/172/119 161/178/119
o Cube.005
v -0.016612 1.715307 -0.052721
v -0.016612 1.787516 -0.052721
v 0.017007 1.718620 -0.143156
v 0.017007 1.807398 -0.129901
v 0.050626 1.715307 -0.052721
v 0.050626 1.787516 -0.052721
vn -0.9291 0.0303 -0.3685
vn 0.9291 0.0303 -0.3685
vn -0.0000 -0.0000 1.0000
vn -0.0000 -0.9993 -0.0366
vn -0.0000 0.9684 0.2495
vt 0.636620 0.785937
vt 0.636620 0.851287
vt 0.651833 0.869281
vt 0.651833 0.788936
vt 0.667046 0.851287
vt 0.667046 0.785937
s 0
usemtl Material.002
f 177/179/120 178/180/120 180/181/120 179/182/120
f 179/182/121 180/181/121 182/183/121 181/184/121
f 181/184/122 182/183/122 178/180/122 177/179/122
f 179/182/123 181/184/123 177/179/123
f 180/181/124 178/180/124 182/183/124
o Plane
v -0.098593 1.861683 -0.000000
v -0.093289 2.092490 -0.005261
v 0.017533 1.761490 0.028216
v 0.017533 2.094024 0.050544
v 0.017533 1.884994 0.045378
v 0.017533 1.855553 0.068428
v 0.007213 1.864335 0.068428
v 0.017533 1.980371 0.058493
v -0.113712 1.969100 0.002769
v 0.017533 1.868258 0.073411
v -0.098593 1.874003 -0.107302
v 0.017533 1.805206 -0.097764
v -0.079054 1.816726 0.012661
v -0.071404 1.837882 -0.102294
v -0.119331 1.970485 -0.119825
v -0.106354 2.103276 -0.120245
v -0.115448 1.868238 -0.140933
v -0.156155 1.984085 -0.164348
v -0.161505 1.890757 -0.171914
v -0.177401 1.950931 -0.189883
v -0.106153 1.915391 0.001385
v 0.017533 1.932683 0.051935
v -0.108962 1.922244 -0.113564
v -0.134040 1.915957 -0.151118
v -0.171874 1.909347 -0.186042
v 0.133659 1.861683 -0.000000
v 0.128354 2.092490 -0.005261
v 0.027852 1.864335 0.068428
v 0.148777 1.969100 0.002769
v 0.133659 1.874003 -0.107302
v 0.114120 1.816726 0.012661
v 0.106469 1.837882 -0.102294
v 0.154397 1.970485 -0.119825
v 0.141419 2.103276 -0.120245
v 0.150513 1.868238 -0.140933
v 0.191220 1.984085 -0.164348
v 0.196570 1.890757 -0.171914
v 0.212467 1.950931 -0.189883
v 0.141218 1.915391 0.001385
v 0.144028 1.922244 -0.113564
v 0.169105 1.915957 -0.151118
v 0.206939 1.909347 -0.186042
vn -0.4145 -0.2326 0.8798
vn -0.3733 -0.1001 0.9223
vn -0.2967 -0.3487 0.8890
vn -0.4646 0.5459 0.6972
vn -0.4207 0.0970 0.9020
vn -0.4978 0.7447 0.4446
vn -0.3922 -0.8850 -0.2507
vn -0.8512 -0.5138 -0.1067
vn -0.9877 0.1316 0.0844
vn -0.9847 -0.1718 0.0290
vn -0.7975 -0.1237 0.5905
vn -0.6928 -0.0628 0.7183
vn -0.6153 0.0202 0.7881
vn -0.8377 -0.1635 0.5211
vn -0.9849 -0.1733 -0.0025
vn -0.3550 -0.0993 0.9296
vn 0.4145 -0.2326 0.8798
vn 0.3733 -0.1001 0.9223
vn 0.2967 -0.3487 0.8890
vn 0.4646 0.5459 0.6972
vn 0.4207 0.0970 0.9020
vn 0.4978 0.7447 0.4446
vn 0.3922 -0.8850 -0.2507
vn 0.8512 -0.5138 -0.1067
vn 0.9877 0.1316 0.0844
vn 0.9847 -0.1718 0.0290
vn 0.7975 -0.1237 0.5905
vn 0.6928 -0.0628 0.7183
vn 0.6153 0.0202 0.7881
vn 0.8377 -0.1635 0.5211
vn 0.9849 -0.1733 -0.0025
vn 0.3550 -0.0993 0.9296
vt 0.740018 0.589291
vt 0.756639 0.535230
vt 0.813329 0.470392
vt 0.813329 0.580808
vt 0.813329 0.671346
vt 0.813329 0.727325
vt 0.726636 0.721824
vt 0.731073 0.658779
vt 0.813329 0.595721
vt 0.807272 0.591116
vt 0.813329 0.615367
vt 0.817838 0.947051
vt 0.751505 0.920774
vt 0.673373 0.775081
vt 0.654056 0.799857
vt 0.658843 0.826337
vt 0.673373 0.829798
vt 0.761130 0.560064
vt 0.740018 0.603753
vt 0.729135 0.707992
vt 0.724513 0.871599
vt 0.729424 0.666822
vt 0.702369 0.735550
vt 0.714705 0.659443
vt 0.687967 0.709515
vt 0.692499 0.651683
vt 0.725617 0.603427
vt 0.698585 0.629861
s 0
usemtl clerk_1_body
f 183/185/125 195/186/125 185/187/125 188/188/125
f 204/189/126 190/190/126 191/191/126 203/192/126
f 188/188/127 192/193/127 189/194/127
f 189/194/128 187/195/128 183/185/128 188/188/128
f 191/191/129 190/190/129 186/196/129 184/197/129
f 189/194/130 192/193/130 187/195/130
f 185/198/131 195/199/131 196/200/131 194/201/131
f 196/202/132 195/186/132 183/185/132 193/203/132
f 197/204/133 191/191/133 184/197/133 198/205/133
f 205/206/134 203/192/134 191/191/134 197/204/134
f 205/206/135 197/204/135 200/207/135 206/208/135
f 206/208/136 200/207/136 202/209/136 207/210/136
f 199/211/137 206/208/137 207/210/137 201/212/137
f 193/203/138 205/206/138 206/208/138 199/211/138
f 193/203/139 183/185/139 203/192/139 205/206/139
f 187/195/140 204/189/140 203/192/140 183/185/140
f 208/185/141 188/188/141 185/187/141 213/186/141
f 204/189/142 221/192/142 211/191/142 190/190/142
f 188/188/143 210/194/143 192/193/143
f 210/194/144 188/188/144 208/185/144 187/195/144
f 211/191/145 209/197/145 186/196/145 190/190/145
f 210/194/146 187/195/146 192/193/146
f 185/198/147 194/201/147 214/200/147 213/199/147
f 214/202/148 212/203/148 208/185/148 213/186/148
f 215/204/149 216/205/149 209/197/149 211/191/149
f 222/206/150 215/204/150 211/191/150 221/192/150
f 222/206/151 223/208/151 218/207/151 215/204/151
f 223/208/152 224/210/152 220/209/152 218/207/152
f 217/211/153 219/212/153 224/210/153 223/208/153
f 212/203/154 217/211/154 223/208/154 222/206/154
f 212/203/155 222/206/155 221/192/155 208/185/155
f 187/195/156 208/185/156 221/192/156 204/189/156
o Cube.006
v -0.190410 1.946207 0.110447
v 0.018199 2.142955 0.055028
v -0.190410 1.924672 -0.285595
v 0.018199 2.108680 -0.263212
v 0.149506 1.992062 -0.071818
v 0.234345 1.918930 -0.285595
v -0.119802 2.127362 0.050376
v -0.120548 2.074631 -0.257469
v 0.144735 2.078221 -0.257469
v 0.128742 2.107926 0.020388
v 0.021967 1.921801 -0.285595
v 0.021967 2.063212 0.073789
v -0.190410 1.935439 -0.087574
v 0.020532 2.187073 -0.096906
v 0.234345 1.929697 -0.188334
v 0.189839 2.130951 -0.094394
v -0.158108 2.127362 -0.094394
v 0.021967 1.932568 -0.087574
v 0.019080 1.756342 -0.321360
v -0.221293 1.758496 -0.321360
v -0.127407 1.728762 -0.075962
v 0.019080 1.706158 -0.075962
v -0.172176 1.731271 -0.049756
v -0.143463 1.714707 -0.003444
v -0.160789 1.883674 0.044727
v 0.020103 1.794664 -0.080076
v 0.148449 1.726939 -0.087574
v 0.257315 1.757419 -0.332972
v 0.015507 1.761008 -0.332972
v 0.015507 1.710824 -0.087574
v -0.250922 1.866487 -0.083825
v -0.250922 1.885151 0.047438
v -0.053619 1.938987 0.114196
v 0.021035 1.863616 -0.083825
v 0.282798 1.862580 -0.330818
v 0.018737 1.876937 -0.330818
v 0.189526 1.866515 -0.139058
v 0.018737 1.887704 -0.092703
v -0.191854 1.891348 -0.081768
v 0.020524 1.888477 -0.081768
v -0.191854 1.880581 -0.325012
v 0.020524 1.877710 -0.325012
v -0.172477 1.802310 -0.078865
v -0.172477 1.780058 -0.275810
v 0.019802 1.803746 -0.078865
v 0.019802 1.781494 -0.275810
v 0.212271 1.782722 -0.284519
v 0.212271 1.804975 -0.087574
v 0.017122 1.805693 -0.087574
v 0.017122 1.783440 -0.284519
v 0.209939 1.734268 -0.255041
v -0.168174 1.731744 -0.254213
v 0.148449 1.731513 -0.163911
v 0.211167 1.771508 -0.166840
v -0.170703 1.773224 -0.151142
v -0.168174 1.718090 -0.146932
v 0.141261 1.927186 -0.192652
v 0.202836 1.949090 -0.193542
v 0.167823 1.977303 -0.131097
v 0.152454 1.965640 -0.142973
v 0.160538 1.866714 -0.178985
vn -0.2711 0.8840 -0.3809
vn 0.3264 0.8953 0.3030
vn 0.3572 -0.7798 0.5141
vn -0.0243 0.2949 0.9552
vn 0.7675 -0.2865 0.5735
vn 0.0318 0.1527 -0.9878
vn -0.9448 0.2916 -0.1496
vn -0.0298 0.1539 -0.9876
vn 0.5137 -0.2444 0.8224
vn -0.8418 -0.5207 0.1423
vn 0.0022 0.0345 0.9994
vn -0.9547 0.2809 0.0979
vn 0.8760 0.4112 -0.2521
vn 0.0089 0.8986 -0.4387
vn 0.2687 0.8810 -0.3894
vn -0.2291 0.9584 0.1703
vn 0.0065 -0.9858 -0.1681
vn -0.9804 0.0008 0.1972
vn 0.9999 -0.0115 -0.0007
vn 0.0015 0.8895 -0.4569
vn 0.5522 -0.4687 0.6895
vn 0.0188 -0.4703 0.8823
vn 0.3789 -0.6682 0.6402
vn -0.0384 -0.1961 -0.9798
vn -0.0003 -0.9840 -0.1781
vn 0.9839 0.0559 0.1698
vn -0.0000 -0.0000 1.0000
vn -0.9996 0.0268 0.0017
vn -0.0006 -0.0540 -0.9985
vn 0.8970 -0.2765 0.3448
vn -0.0324 -0.0975 0.9947
vn -0.7163 0.6951 -0.0621
vn -0.9973 0.0738 -0.0036
vn 0.4508 0.1749 0.8754
vn 0.9515 0.0393 0.3051
vn 0.0243 0.6721 -0.7400
vn 0.0090 0.6663 -0.7456
vn 0.9994 -0.0333 0.0016
vn -0.9994 0.0333 -0.0016
vn 0.0018 0.1305 0.9914
vn -0.0016 -0.4475 -0.8943
vn 1.0000 -0.0078 0.0006
vn -0.9804 -0.1964 0.0147
vn 0.0001 0.0334 0.9994
vn -0.9998 0.0180 -0.0014
vn 0.1495 0.5917 0.7922
vn 0.9578 -0.1574 0.2404
vn -0.0153 -0.4661 -0.8846
vn 0.5190 -0.7900 0.3263
vn -0.9989 -0.0463 -0.0059
vn 0.6779 -0.7236 0.1296
vn -0.8914 -0.3115 0.3291
vn -0.0505 0.1817 0.9821
vn 0.3048 -0.7913 0.5300
vn -0.5611 0.7185 0.4109
vt 0.509721 0.282582
vt 0.550953 0.310147
vt 0.550415 0.273959
vt 0.518390 0.258241
vt 0.590032 0.284239
vt 0.550415 0.289781
vt 0.575930 0.273610
vt 0.551284 0.192660
vt 0.578819 0.190176
vt 0.593031 0.200287
vt 0.584950 0.213311
vt 0.581403 0.207927
vt 0.518456 0.344939
vt 0.532018 0.351750
vt 0.495532 0.342934
vt 0.474750 0.243535
vt 0.600304 0.191335
vt 0.580722 0.220125
vt 0.551284 0.187690
vt 0.579621 0.259898
vt 0.600304 0.186364
vt 0.502265 0.193986
vt 0.502265 0.189015
vt 0.551284 0.252969
vt 0.488298 0.170771
vt 0.488298 0.162156
vt 0.506474 0.099736
vt 0.513101 0.092090
vt 0.550785 0.133193
vt 0.506404 0.132530
vt 0.516807 0.098578
vt 0.550618 0.088143
vt 0.502265 0.198956
vt 0.518562 0.282582
vt 0.550166 0.123819
vt 0.595209 0.123487
vt 0.605606 0.111807
vt 0.549793 0.113464
vt 0.495137 0.112304
vt 0.550618 0.111310
vt 0.507397 0.093651
vt 0.507397 0.099955
vt 0.506404 0.122258
vt 0.506814 0.119103
vt 0.550785 0.122920
vt 0.550854 0.129000
vt 0.509102 0.170090
vt 0.501618 0.237911
vt 0.439314 0.159483
vt 0.465598 0.119314
vt 0.458608 0.168911
vt 0.551069 0.160830
vt 0.533838 0.195624
vt 0.594671 0.101120
vt 0.580478 0.099848
vt 0.580478 0.097736
vt 0.549793 0.090297
vt 0.595209 0.133760
vt 0.594954 0.118310
vt 0.550166 0.134091
vt 0.550539 0.166979
vt 0.550539 0.171950
vt 0.583268 0.162260
vt 0.589959 0.162169
vt 0.611488 0.160352
vt 0.550951 0.167336
vt 0.501932 0.168662
vt 0.550951 0.172307
vt 0.501932 0.173632
s 0
usemtl Material.001
f 241/213/157 238/214/157 228/215/157 232/216/157
f 240/217/158 238/214/158 226/218/158 234/219/158
f 242/220/159 281/221/159 282/222/159 283/223/159 284/224/159
f 236/225/160 226/226/160 231/227/160 225/228/160
f 239/229/161 240/217/161 234/219/161 229/230/161 283/223/161 282/222/161
f 235/231/162 228/215/162 233/232/162 230/233/162
f 237/234/163 241/213/163 232/216/163 227/235/163
f 227/235/164 232/216/164 228/215/164 235/231/164
f 229/230/165 234/219/165 226/218/165 236/236/165
f 256/237/166 255/238/166 247/239/166 248/240/166
f 269/241/167 267/242/167 245/243/167 246/244/167
f 225/245/168 231/246/168 241/213/168 237/234/168
f 230/233/169 233/232/169 240/217/169 239/229/169
f 274/247/170 271/248/170 252/249/170 253/250/170
f 233/232/171 228/215/171 238/214/171 240/217/171
f 231/246/172 226/218/172 238/214/172 241/213/172
f 244/251/173 243/252/173 246/244/173 245/243/173 280/253/173 276/254/173
f 267/242/174 268/255/174 244/251/174 276/254/174 279/256/174
f 270/257/175 269/241/175 246/244/175 243/252/175
f 268/255/176 270/257/176 243/252/176 244/251/176
f 247/239/177 250/258/177 249/259/177 248/240/177
f 257/260/178 256/261/178 248/262/178 249/263/178
f 258/264/179 257/265/179 249/259/179 250/258/179
f 255/238/180 258/264/180 250/258/180 247/239/180
f 253/250/181 252/249/181 275/266/181 277/267/181 251/268/181 254/269/181
f 271/248/182 272/270/182 278/271/182 275/266/182 252/249/182
f 272/270/183 273/272/183 254/269/183 251/268/183
f 273/272/184 274/247/184 253/250/184 254/269/184
f 237/234/185 242/220/185 258/264/185 255/238/185
f 242/220/186 236/236/186 257/265/186 258/264/186
f 236/225/187 225/228/187 256/261/187 257/260/187
f 225/245/188 237/234/188 255/238/188 256/237/188
f 242/220/189 235/231/189 260/273/189 262/274/189
f 239/229/190 281/221/190 242/220/190 262/274/190 285/275/190
f 230/233/191 239/229/191 261/276/191 259/277/191
f 235/231/192 230/233/192 259/277/192 260/273/192
f 227/235/193 235/231/193 266/278/193 265/279/193
f 235/231/194 242/220/194 264/280/194 266/278/194
f 237/234/195 227/235/195 265/279/195 263/281/195
f 242/220/196 237/234/196 263/281/196 264/280/196
f 265/279/197 266/278/197 270/257/197 268/255/197
f 266/278/198 264/280/198 269/241/198 270/257/198
f 263/281/199 265/279/199 268/255/199 267/242/199
f 264/280/200 263/281/200 267/242/200 269/241/200
f 262/274/201 260/273/201 274/247/201 273/272/201
f 261/276/202 285/275/202 262/274/202 273/272/202 272/270/202
f 259/277/203 261/276/203 272/270/203 271/248/203
f 260/273/204 259/277/204 271/248/204 274/247/204
f 275/266/205 278/271/205 277/267/205
f 276/254/206 280/253/206 279/256/206
f 277/267/207 278/271/207 272/270/207 251/268/207
f 279/256/208 280/253/208 245/243/208 267/242/208
f 282/222/209 281/221/209 239/229/209
f 284/224/210 283/223/210 229/230/210 236/236/210 242/220/210
f 285/275/211 261/276/211 239/229/211
o Cube.007
v 0.309517 1.339303 -0.140868
v 0.374333 1.395318 -0.140868
v 0.309517 1.339303 -0.059075
v 0.374333 1.395318 -0.059075
v 0.171011 1.552164 -0.157072
v 0.190897 1.691407 -0.174749
v 0.171011 1.552164 -0.059075
v 0.190897 1.691407 -0.059075
v 0.432340 1.122412 -0.128151
v 0.487215 1.145289 -0.128151
v 0.432340 1.122412 -0.071792
v 0.487215 1.145289 -0.071792
v 0.321223 1.318671 -0.059075
v 0.402607 1.358117 -0.059075
v 0.402607 1.358117 -0.150809
v 0.321223 1.318671 -0.150809
vn 0.0233 -0.0509 0.9984
vn -0.0000 -0.0000 1.0000
vn -0.9900 0.1414 -0.0000
vn 0.0074 -0.0933 -0.9956
vn -0.8382 -0.5454 -0.0000
vn 0.8501 0.5266 -0.0000
vn 0.3848 -0.9230 -0.0000
vn 0.0414 -0.0904 -0.9950
vn 0.9293 0.3694 -0.0000
vn -0.8702 -0.4927 -0.0000
vn -0.8698 -0.4935 -0.0000
vn 0.7961 0.6051 -0.0000
vn -0.1488 0.2279 -0.9622
vt 0.647126 0.561597
vt 0.615966 0.561597
vt 0.647126 0.592757
vt 0.615966 0.592757
vt 0.647126 0.623917
vt 0.615966 0.623917
vt 0.647126 0.655078
vt 0.615966 0.655078
vt 0.584806 0.592757
vt 0.584806 0.623917
vt 0.678287 0.592757
vt 0.678287 0.623917
vt 0.615966 0.530436
vt 0.647126 0.530436
s 0
usemtl Material.007
f 299/282/212 298/283/212 296/283/212 297/282/212
f 288/283/213 289/282/213 293/284/213 292/285/213
f 292/285/214 293/284/214 291/286/214 290/287/214
f 290/287/215 291/286/215 287/288/215 286/289/215
f 288/290/216 292/285/216 290/287/216 286/291/216
f 293/284/217 289/292/217 287/293/217 291/286/217
f 294/294/218 295/295/218 297/282/218 296/283/218
f 301/289/219 300/288/219 295/288/219 294/289/219
f 300/293/220 299/292/220 297/292/220 295/293/220
f 298/290/221 301/291/221 294/291/221 296/290/221
f 288/290/222 286/291/222 301/291/222 298/290/222
f 287/293/223 289/292/223 299/292/223 300/293/223
f 286/289/224 287/288/224 300/288/224 301/289/224
f 289/282/213 288/283/213 298/283/213 299/282/213
o Cube.008
v 0.533586 1.004680 -0.127194
v 0.485537 1.144083 -0.127194
v 0.529571 1.004680 -0.065083
v 0.481522 1.144083 -0.071710
v 0.483652 0.993082 -0.127194
v 0.432290 1.120887 -0.127194
v 0.479638 0.993082 -0.065083
v 0.428275 1.120887 -0.071710
v 0.531252 1.077506 -0.164683
v 0.527237 1.077506 -0.034222
v 0.425639 1.053031 -0.034222
v 0.429653 1.053031 -0.164683
v 0.528404 1.041093 -0.052966
v 0.445183 1.015600 -0.052966
v 0.449197 1.015600 -0.145938
v 0.532419 1.041093 -0.145938
vn 0.8238 0.5657 0.0356
vn -0.1380 0.4483 0.8831
vn -0.9983 0.0388 -0.0431
vn -0.1380 0.4483 -0.8831
vn 0.2262 -0.9740 0.0146
vn -0.3992 0.9164 -0.0289
vn 0.1146 -0.4239 -0.8984
vn -0.8860 -0.4626 -0.0318
vn 0.1146 -0.4239 0.8984
vn 0.9988 0.0320 0.0359
vn 0.9980 0.0367 0.0517
vn 0.0921 -0.3306 0.9393
vn -0.5450 -0.8380 -0.0282
vn 0.1320 -0.4740 -0.8706
vt 0.631546 0.530436
vt 0.647126 0.530436
vt 0.647126 0.561597
vt 0.631546 0.561597
vt 0.647126 0.592757
vt 0.631546 0.592757
vt 0.647126 0.623917
vt 0.631546 0.623917
vt 0.647126 0.655078
vt 0.631546 0.655078
vt 0.584806 0.592757
vt 0.615966 0.592757
vt 0.615966 0.623917
vt 0.584806 0.623917
vt 0.678287 0.592757
vt 0.678287 0.623917
vt 0.623756 0.623917
vt 0.623756 0.655078
vt 0.623756 0.592757
vt 0.623756 0.561597
vt 0.623756 0.530436
vt 0.615966 0.530436
vt 0.615966 0.561597
vt 0.615966 0.655078
s 0
usemtl Material.008
f 310/296/225 303/297/225 305/298/225 311/299/225
f 311/299/226 305/298/226 309/300/226 312/301/226
f 312/301/227 309/300/227 307/302/227 313/303/227
f 313/303/228 307/302/228 303/304/228 310/305/228
f 304/306/229 308/307/229 306/308/229 302/309/229
f 309/300/230 305/310/230 303/311/230 307/302/230
f 316/312/231 313/303/231 310/305/231 317/313/231
f 315/314/232 312/301/232 313/303/232 316/312/232
f 314/315/233 311/299/233 312/301/233 315/314/233
f 317/316/234 310/296/234 311/299/234 314/315/234
f 302/317/235 317/316/235 314/315/235 304/318/235
f 304/318/236 314/315/236 315/314/236 308/307/236
f 308/307/237 315/314/237 316/312/237 306/308/237
f 306/308/238 316/312/238 317/313/238 302/319/238
o Cube.009
v -0.255317 -0.026503 0.205738
v -0.079801 0.251439 -0.012957
v -0.255317 -0.026502 -0.174564
v -0.079801 0.251439 -0.158161
v -0.077587 -0.026503 0.205738
v -0.216496 0.249512 -0.158161
v -0.077587 -0.026502 -0.174564
v -0.216496 0.249512 -0.012956
v -0.240868 0.059411 0.185053
v -0.257244 0.032438 -0.166857
v -0.077587 0.029548 -0.166857
v -0.077587 0.059411 0.185053
v -0.231234 0.087624 0.089356
v -0.231234 0.087624 -0.164931
v -0.080477 0.087624 0.089356
v -0.080477 0.087624 -0.164931
v -0.255317 0.007785 -0.170711
v -0.077587 0.007785 -0.170711
v -0.077587 0.028014 0.202139
v -0.257244 0.030904 0.202139
v -0.219530 0.168568 -0.004668
v -0.219530 0.168568 -0.155766
v -0.087364 0.169531 -0.155766
v -0.087364 0.169531 -0.004668
vn -0.0000 -1.0000 -0.0000
vn 0.0042 0.4946 0.8691
vn 1.0000 -0.0000 -0.0000
vn 0.0013 0.1638 -0.9865
vn -0.9649 0.2626 0.0011
vn -0.9897 0.1431 -0.0000
vn -0.0004 0.1119 -0.9937
vn 0.9965 0.0838 -0.0000
vn -0.0026 0.7560 0.6546
vn -0.0000 0.9592 0.2828
vn -0.9167 0.3996 0.0070
vn 0.0003 0.0339 -0.9994
vn 0.9980 0.0635 -0.0031
vn -0.9998 -0.0210 -0.0019
vn -0.0000 0.1117 -0.9937
vn 0.0005 0.0642 0.9979
vn -0.0011 0.1013 0.9949
vn 0.9958 -0.0919 -0.0000
vn 0.0003 -0.0294 -0.9996
vn -0.9993 0.0375 -0.0000
vn -0.0141 0.9999 -0.0000
vt 0.185790 0.500000
vt 0.375000 0.500000
vt 0.375000 0.750000
vt 0.185791 0.750000
vt 0.182420 0.527640
vt 0.174984 0.552916
vt 0.128185 0.557787
vt 0.127725 0.524791
vt 0.327182 0.512740
vt 0.325833 0.527969
vt 0.202703 0.548867
vt 0.196724 0.526896
vt 0.182009 0.528518
vt 0.175199 0.550047
vt 0.128376 0.558004
vt 0.127307 0.524241
vt 0.196974 0.528011
vt 0.202952 0.547960
vt 0.326083 0.529084
vt 0.327431 0.511832
vt 0.269334 0.624346
vt 0.322202 0.624346
vt 0.325409 0.567703
vt 0.236436 0.567703
vt 0.176259 0.628914
vt 0.130015 0.629588
vt 0.130456 0.587952
vt 0.174295 0.588665
vt 0.321953 0.625927
vt 0.269085 0.625927
vt 0.236186 0.568610
vt 0.325159 0.568610
vt 0.174993 0.647715
vt 0.131248 0.626981
vt 0.129388 0.590349
vt 0.174708 0.590057
vt 0.195715 0.487839
vt 0.328779 0.487839
vt 0.182009 0.496684
vt 0.127663 0.495971
vt 0.328530 0.488746
vt 0.195465 0.488746
vt 0.181984 0.499174
vt 0.128213 0.496618
vt 0.174162 0.684035
vt 0.130090 0.683454
vt 0.322791 0.683245
vt 0.271985 0.683245
vt 0.175198 0.685558
vt 0.127369 0.686906
vt 0.272234 0.680989
vt 0.323040 0.680989
vt 0.726731 0.554017
vt 0.726732 0.695983
vt 0.675776 0.695983
vt 0.675776 0.554017
s 0
usemtl Material.010
f 320/320/239 324/321/239 322/322/239 318/323/239
f 336/324/240 329/325/240 326/326/240 337/327/240
f 335/328/241 328/329/241 329/330/241 336/331/241
f 334/332/242 327/333/242 328/334/242 335/335/242
f 337/336/243 326/337/243 327/338/243 334/339/243
f 338/340/244 339/341/244 331/342/244 330/343/244
f 339/344/245 340/345/245 333/346/245 331/347/245
f 340/348/246 341/349/246 332/350/246 333/351/246
f 341/352/247 338/353/247 330/354/247 332/355/247
f 329/325/248 332/355/248 330/354/248 326/326/248
f 326/337/249 330/343/249 331/342/249 327/338/249
f 327/333/250 331/347/250 333/346/250 328/334/250
f 328/329/251 333/351/251 332/350/251 329/330/251
f 318/356/252 337/336/252 334/339/252 320/357/252
f 320/358/253 334/332/253 335/335/253 324/359/253
f 324/360/241 335/328/241 336/331/241 322/361/241
f 322/362/254 336/324/254 337/327/254 318/363/254
f 319/364/255 325/365/255 338/353/255 341/352/255
f 321/366/256 319/367/256 341/349/256 340/348/256
f 323/368/257 321/369/257 340/345/257 339/344/257
f 325/370/258 323/371/258 339/341/258 338/340/258
f 323/372/259 325/373/259 319/374/259 321/375/259
